<svg id="圖層_1" data-name="圖層 1" xmlns="http://www.w3.org/2000/svg" viewBox="0 0 61.92 52.75"><defs><style>.cls-1{fill:#ffa543;}.cls-2{fill:#34b76f;}.cls-3{fill:#db4437;}.cls-4{fill:#ffba40;}.cls-5{fill:#db7712;}</style></defs><title>hambur</title><path class="cls-1" d="M8.69,33.62c0,8.27,10.91,17.53,24.13,17.61s24-9.18,24.13-17.45q0-.09,0-.17c0-3.44-4.47-6.22-10-6.22H18.7c-5.48,0-10,2.75-10,6.17Z"/><path class="cls-2" d="M41,33.41l-6.67-5.88a3.46,3.46,0,0,0-3.83-.47,3.41,3.41,0,0,0-2.15,1.08L24.63,32.2l-4.85-4.27A3.3,3.3,0,0,0,19,26.82a3.46,3.46,0,0,0-4.8.26l-6,6.56a3.31,3.31,0,0,0,.25,4.72,3.46,3.46,0,0,0,4.8-.26l3.53-3.86,4.85,4.27a3.37,3.37,0,0,0,.52.38,3.33,3.33,0,0,0,.48.53,3.46,3.46,0,0,0,4.8-.26l4.42-4.84,4.61,4.07a3.46,3.46,0,0,0,4.8-.26h0A3.31,3.31,0,0,0,41,33.41Z"/><path class="cls-2" d="M56,33.34l-6.67-5.88A3.46,3.46,0,0,0,45.54,27a3.41,3.41,0,0,0-2.15,1.08l-3.71,4.06-4.85-4.27A3.3,3.3,0,0,0,34,26.76a3.46,3.46,0,0,0-4.8.26l-6,6.56a3.31,3.31,0,0,0,.25,4.72,3.46,3.46,0,0,0,4.8-.26l3.53-3.86,4.85,4.27a3.37,3.37,0,0,0,.52.38,3.33,3.33,0,0,0,.48.53,3.46,3.46,0,0,0,4.8-.26l4.42-4.84,4.61,4.07a3.46,3.46,0,0,0,4.8-.26h0A3.31,3.31,0,0,0,56,33.34Z"/><rect class="cls-3" x="5.96" y="27.39" width="54.36" height="7.71" rx="3.64" ry="3.64"/><path class="cls-2" d="M57.38,28.26l-7.61-7.61A3.35,3.35,0,0,0,46,20a3.32,3.32,0,0,0-2.16,1L40,24.79,35.5,20.26a3.31,3.31,0,0,0-1.08-1.44,3.42,3.42,0,0,0-4.47.37L25.18,24l-4.44-4.44a3.31,3.31,0,0,0-1.08-1.44,3.42,3.42,0,0,0-4.47.37L9.11,24.53a3.41,3.41,0,0,0-.3,4.55,3.35,3.35,0,0,0,4.95.25l1.89-1.89a2.51,2.51,0,0,1,3.55,0L22,30.18a3.32,3.32,0,0,0,.49.4,3.32,3.32,0,0,0,.45.56,3.35,3.35,0,0,0,4.72,0L29,30.41a7,7,0,0,1,6.53-.09l1,.53a3.31,3.31,0,0,0,.75.56,2.64,2.64,0,0,0,2,1.22,4.38,4.38,0,0,0,3.64-1.28l2.53-2.53a2.16,2.16,0,0,1,3,0l2.78,2.78a2.66,2.66,0,0,0,2.11.84,10.62,10.62,0,0,0,2.47-.74c.77-.25,1.52-.4,1.91-1.2A2,2,0,0,0,57.38,28.26Z"/><path class="cls-4" d="M2.73,27.88c2.57-.47,21.33-1.21,32.8,7.6a3.23,3.23,0,0,0,3.32.21c3.58-1.88,7.84-6.44,19.36-8,2.25-.3,3.35-1.49,1.1-1.72-14.92-1.51-21.14-8.76-37.65-4.57C-.32,27,.72,27.83,1.89,27.93A3.16,3.16,0,0,0,2.73,27.88Z"/><path class="cls-1" d="M58.21,20.32c0-8.27-10.85-18.72-24.76-18.8S7.58,11.89,7.44,20.16q0,.09,0,.17c0,3.44,4.71,6.22,10.5,6.22H47.69c5.76,0,10.5-2.75,10.52-6.17Z"/><path class="cls-5" d="M47.44,23.47H17.69c-5.12,0-9.39-2.17-10.31-5.05a9.59,9.59,0,0,0-.19,1.7q0,.09,0,.17c0,3.44,4.71,6.22,10.5,6.22H47.44c5.76,0,10.5-2.75,10.52-6.17v-.07a10.36,10.36,0,0,0-.18-1.86C56.87,21.3,52.56,23.47,47.44,23.47Z"/></svg>